Coordinates
version=1
nRows=16
nColumns=40
inDegrees=yes

Units are S.I. units (second, meters, Newtons, ...)
If the header above contains a line with 'inDegrees', this indicates whether rotational values are in degrees (yes) or radians (no).

endheader
time	pelvis_tilt	pelvis_list	pelvis_rotation	pelvis_tx	pelvis_ty	pelvis_tz	hip_flexion_r	hip_adduction_r	hip_rotation_r	knee_angle_r	knee_angle_r_beta	ankle_angle_r	subtalar_angle_r	mtp_angle_r	hip_flexion_l	hip_adduction_l	hip_rotation_l	knee_angle_l	knee_angle_l_beta	ankle_angle_l	subtalar_angle_l	mtp_angle_l	lumbar_extension	lumbar_bending	lumbar_rotation	arm_flex_r	arm_add_r	arm_rot_r	elbow_flex_r	pro_sup_r	wrist_flex_r	wrist_dev_r	arm_flex_l	arm_add_l	arm_rot_l	elbow_flex_l	pro_sup_l	wrist_flex_l	wrist_dev_l
      0.58000000	    -13.23292237	      0.79300825	     -2.20191688	      0.17969470	      0.79319237	     -1.20774381	     48.18271856	    -31.72075622	    -18.11707006	     57.98723379	      1.01206815	     10.92048972	     -7.16441957	      0.00000000	     46.31532206	    -34.57223186	    -25.66764512	     58.97577274	      1.02932141	     13.12517995	      2.66175917	      0.00000000	    -11.31338740	     -1.02048716	     -1.64204611	     44.99052307	    -15.00032390	     44.99052307	     75.00018676	     45.00000025	      0.00000000	      0.00000000	     44.99052307	    -15.00032390	     44.99052307	     75.00018676	     45.00000025	      0.00000000	      0.00000000
      0.58500000	    -13.77358299	      0.69059246	     -2.18458795	      0.17856707	      0.78860765	     -1.20762201	     49.44289591	    -31.84936899	    -17.82225677	     59.02256941	      1.03013817	     11.35300963	     -7.03194546	      0.00000000	     47.73944897	    -34.93408967	    -24.99456776	     60.00802548	      1.04733762	     13.47254739	      2.72692639	      0.00000000	    -10.78150472	     -0.90166962	     -1.66011597	     44.99060019	    -15.00031976	     44.99060019	     75.00018652	     45.00000025	      0.00000000	      0.00000000	     44.99060019	    -15.00031976	     44.99060019	     75.00018652	     45.00000025	      0.00000000	      0.00000000
      0.59000000	    -13.73876786	      0.66954668	     -2.13949746	      0.17794597	      0.78558532	     -1.20764445	     49.92375662	    -32.06911113	    -17.56467186	     59.83404127	      1.04430102	     11.72921545	     -6.94330442	      0.00000000	     48.27807932	    -35.17214389	    -24.64227864	     60.80547798	      1.06125579	     13.79432361	      2.84802312	      0.00000000	    -10.99144851	     -0.86859341	     -1.65062633	     44.99065518	    -15.00031685	     44.99065518	     75.00018635	     45.00000025	      0.00000000	      0.00000000	     44.99065518	    -15.00031685	     44.99065518	     75.00018635	     45.00000025	      0.00000000	      0.00000000
      0.59500000	    -13.50872854	      0.66588858	     -2.15517136	      0.17736000	      0.78316336	     -1.20760053	     50.18834184	    -32.29746228	    -17.37168188	     60.55453043	      1.05687593	     11.78539810	     -6.89258378	      0.00000000	     48.48657236	    -35.41640033	    -24.42877347	     61.48920994	      1.07318917	     13.91740872	      2.80643618	      0.00000000	    -11.48464375	     -0.86022655	     -1.63973609	     44.99069694	    -15.00031467	     44.99069694	     75.00018624	     45.00000025	      0.00000000	      0.00000000	     44.99069694	    -15.00031467	     44.99069694	     75.00018624	     45.00000025	      0.00000000	      0.00000000
      0.60000000	    -14.30433020	      0.55028096	     -2.10921693	      0.17613138	      0.77767454	     -1.20747001	     51.80263048	    -32.42269993	    -17.01078372	     61.73008328	      1.07739320	     12.27576566	     -6.78285367	      0.00000000	     50.33610465	    -35.76455604	    -23.57368917	     62.62216976	      1.09296305	     14.31204187	      2.76923446	      0.00000000	    -10.53419547	     -0.71048712	     -1.68203054	     44.99077299	    -15.00031058	     44.99077299	     75.00018599	     45.00000025	      0.00000000	      0.00000000	     44.99077299	    -15.00031058	     44.99077299	     75.00018599	     45.00000025	      0.00000000	      0.00000000
      0.60500000	    -14.45555035	      0.52361363	     -2.08307781	      0.17525906	      0.77410497	     -1.20744640	     52.54478141	    -32.62767545	    -16.73725188	     62.53692809	      1.09147530	     12.55675499	     -6.53390905	      0.00000000	     51.16452276	    -36.01581670	    -23.12422619	     63.45804581	      1.10755184	     14.54636787	      3.01102046	      0.00000000	    -10.64592970	     -0.73313904	     -1.63946956	     44.99084049	    -15.00030699	     44.99084049	     75.00018579	     45.00000025	      0.00000000	      0.00000000	     44.99084049	    -15.00030699	     44.99084049	     75.00018579	     45.00000025	      0.00000000	      0.00000000
      0.61000000	    -14.38850982	      0.52414164	     -2.04759030	      0.17472985	      0.77101831	     -1.20747219	     53.02107384	    -32.86355809	    -16.43794396	     63.36665067	      1.10595669	     12.98360082	     -6.46274724	      0.00000000	     51.63977683	    -36.23159442	    -22.80664419	     64.22626521	      1.12095979	     14.91144631	      3.12595422	      0.00000000	    -10.80246919	     -0.67106855	     -1.65445786	     44.99090288	    -15.00030372	     44.99090288	     75.00018561	     45.00000025	      0.00000000	      0.00000000	     44.99090288	    -15.00030372	     44.99090288	     75.00018561	     45.00000025	      0.00000000	      0.00000000
      0.61500000	    -14.67023499	      0.49749984	     -2.03674319	      0.17377925	      0.76689147	     -1.20738523	     54.00528766	    -33.05942948	    -16.10286395	     64.29782794	      1.12220880	     13.19936152	     -6.37637281	      0.00000000	     52.68498074	    -36.50398133	    -22.28531721	     65.15170040	      1.13711169	     15.13120428	      3.06613222	      0.00000000	    -10.61616619	     -0.64118104	     -1.66281880	     44.99098131	    -15.00029955	     44.99098131	     75.00018537	     45.00000025	      0.00000000	      0.00000000	     44.99098131	    -15.00029955	     44.99098131	     75.00018537	     45.00000025	      0.00000000	      0.00000000
      0.62000000	    -14.41138172	      0.50794048	     -2.00319267	      0.17333284	      0.76440153	     -1.20743671	     54.21838932	    -33.31268450	    -15.87225441	     64.99603206	      1.13439476	     13.30914387	     -6.31750893	      0.00000000	     52.87694076	    -36.71739207	    -22.09279630	     65.82852602	      1.14892452	     15.28014162	      3.06264846	      0.00000000	    -11.18672304	     -0.63363703	     -1.65161774	     44.99103040	    -15.00029703	     44.99103040	     75.00018524	     45.00000025	      0.00000000	      0.00000000	     44.99103040	    -15.00029703	     44.99103040	     75.00018524	     45.00000025	      0.00000000	      0.00000000
      0.62500000	    -14.36052426	      0.51217712	     -1.96839743	      0.17283544	      0.76115660	     -1.20743807	     54.71791557	    -33.56535338	    -15.59288294	     65.81151286	      1.14862759	     13.82795279	     -6.06219479	      0.00000000	     53.38346558	    -36.94379568	    -21.75379009	     66.60827584	      1.16253372	     15.69304007	      3.44594640	      0.00000000	    -11.39869641	     -0.62517707	     -1.65221301	     44.99108261	    -15.00029433	     44.99108261	     75.00018509	     45.00000025	      0.00000000	      0.00000000	     44.99108261	    -15.00029433	     44.99108261	     75.00018509	     45.00000025	      0.00000000	      0.00000000
      0.63000000	    -14.95434471	      0.48713878	     -1.93895909	      0.17168940	      0.75605340	     -1.20738266	     56.12729605	    -33.74746053	    -15.15714850	     66.82276821	      1.16627732	     14.06782895	     -5.93825845	      0.00000000	     54.91158839	    -37.18955834	    -21.07345329	     67.62321351	      1.18024773	     15.90617470	      3.41919104	      0.00000000	    -10.74140398	     -0.59514099	     -1.71609237	     44.99116601	    -15.00028995	     44.99116601	     75.00018485	     45.00000025	      0.00000000	      0.00000000	     44.99116601	    -15.00028995	     44.99116601	     75.00018485	     45.00000025	      0.00000000	      0.00000000
      0.63500000	    -14.72690437	      0.48971075	     -1.89975273	      0.17125671	      0.75335993	     -1.20744021	     56.38364080	    -33.99001331	    -14.90254133	     67.53596372	      1.17872493	     14.30740083	     -5.82738443	      0.00000000	     55.16844192	    -37.40083549	    -20.82851262	     68.31572203	      1.19233428	     16.14700537	      3.54673484	      0.00000000	    -11.25349211	     -0.58713527	     -1.71479087	     44.99121202	    -15.00028759	     44.99121202	     75.00018473	     45.00000025	      0.00000000	      0.00000000	     44.99121202	    -15.00028759	     44.99121202	     75.00018473	     45.00000025	      0.00000000	      0.00000000
      0.64000000	    -15.05808298	      0.47182724	     -1.87706406	      0.17039440	      0.74893582	     -1.20741454	     57.42765720	    -34.19766226	    -14.53505596	     68.45239486	      1.19471967	     14.64504751	     -5.56242286	      0.00000000	     56.29093966	    -37.64865011	    -20.28737996	     69.23070317	      1.20830371	     16.41939610	      3.75521217	      0.00000000	    -10.94273142	     -0.57186167	     -1.78488781	     44.99128437	    -15.00028382	     44.99128437	     75.00018452	     45.00000025	      0.00000000	      0.00000000	     44.99128437	    -15.00028382	     44.99128437	     75.00018452	     45.00000025	      0.00000000	      0.00000000
      0.64500000	    -14.82735943	      0.47625345	     -1.83277196	      0.16996357	      0.74622424	     -1.20750960	     57.67641889	    -34.44296616	    -14.27899316	     69.14070293	      1.20673291	     14.84713992	     -5.48894737	      0.00000000	     56.54904560	    -37.84587226	    -20.03838916	     69.91574851	      1.22026001	     16.63044401	      3.84349733	      0.00000000	    -11.46348773	     -0.54822937	     -1.79535881	     44.99132720	    -15.00028164	     44.99132720	     75.00018441	     45.00000025	      0.00000000	      0.00000000	     44.99132720	    -15.00028164	     44.99132720	     75.00018441	     45.00000025	      0.00000000	      0.00000000
      0.65000000	    -14.59270761	      0.47023711	     -1.79497991	      0.16953681	      0.74349181	     -1.20760291	     57.92627982	    -34.68170650	    -14.02951872	     69.83848024	      1.21891142	     14.99213625	     -5.37422487	      0.00000000	     56.81363533	    -38.07197305	    -19.80720622	     70.60822595	      1.23234602	     16.80216141	      3.93516324	      0.00000000	    -11.96811042	     -0.51337998	     -1.81191908	     44.99136646	    -15.00027966	     44.99136646	     75.00018431	     45.00000025	      0.00000000	      0.00000000	     44.99136646	    -15.00027966	     44.99136646	     75.00018431	     45.00000025	      0.00000000	      0.00000000
      0.65500000	    -14.58039849	      0.46462646	     -1.76001177	      0.16902495	      0.74007469	     -1.20766085	     58.46082213	    -34.91317507	    -13.74491623	     70.59406030	      1.23209878	     15.43558542	     -5.10270471	      0.00000000	     57.39383471	    -38.27874333	    -19.42492439	     71.35860303	      1.24544257	     17.15138488	      4.30687223	      0.00000000	    -12.15983036	     -0.48829970	     -1.84498692	     44.99140908	    -15.00027750	     44.99140908	     75.00018419	     45.00000025	      0.00000000	      0.00000000	     44.99140908	    -15.00027750	     44.99140908	     75.00018419	     45.00000025	      0.00000000	      0.00000000
